# Blender v2.78 (sub 0) OBJ File: '17.blend'
# www.blender.org
mtllib Puppy_01.mtl
o Puppy_Cube.029
v 1.373769 5.812617 -1.016793
v 1.325322 5.926362 -0.961554
v 1.329831 5.982461 -0.838390
v 1.384656 5.948051 -0.719450
v 1.457681 5.843289 -0.674406
v 1.506129 5.729543 -0.729645
v 1.501619 5.673444 -0.852809
v 1.446795 5.707855 -0.971749
v 1.684306 5.777527 -0.906905
v 1.688815 5.833626 -0.783742
v 1.640367 5.947372 -0.728502
v 1.567342 6.052134 -0.773546
v 1.512517 6.086545 -0.892486
v 1.556456 5.916699 -1.070889
v 1.508008 6.030446 -1.015650
v 1.629481 5.811937 -1.025846
v 1.598411 5.932036 -0.899696
v 1.378183 5.812617 1.029129
v 1.324785 5.926362 0.978659
v 1.317765 5.982461 0.855613
v 1.361234 5.948051 0.732069
v 1.429730 5.843289 0.680398
v 1.483128 5.729543 0.730868
v 1.490149 5.673444 0.853914
v 1.446679 5.707855 0.977458
v 1.677091 5.777527 0.890701
v 1.670071 5.833626 0.767655
v 1.616673 5.947372 0.717185
v 1.548177 6.052134 0.768856
v 1.504707 6.086545 0.892399
v 1.565126 5.916699 1.065915
v 1.511728 6.030446 1.015445
v 1.633622 5.811937 1.014244
v 1.590899 5.932036 0.891550
v -1.937515 0.417787 1.621377
v -1.267802 3.660542 1.321453
v -1.937515 0.417787 -1.621377
v -1.267802 3.660542 -1.321453
v 1.396697 0.417787 1.621377
v 1.375104 3.660542 1.321453
v 1.396697 0.417787 -1.621377
v 1.375104 3.660542 -1.321453
v -1.728737 5.161216 -1.767465
v 1.454350 5.283733 -1.633418
v 1.454350 5.283733 1.633418
v -1.728737 5.161216 1.767465
v -1.233459 6.610631 -1.288222
v 1.025332 6.610631 -1.190522
v 1.025332 6.610631 1.190522
v -1.233459 6.610631 1.288222
v -0.151808 0.417787 -1.889701
v -0.070075 3.660542 -1.540142
v -0.151808 0.417787 1.889701
v -0.070075 3.660542 1.540142
v -0.126758 5.161216 -2.059965
v -0.126758 5.161216 2.059965
v -0.190644 6.610631 -1.501412
v -0.190644 6.610631 1.501412
v -2.210837 0.675005 0.395537
v -2.210837 0.675005 -0.395537
v -1.424924 3.660542 0.273182
v -1.424924 3.660542 -0.273182
v 1.617286 0.417787 0.767461
v 1.617286 0.417787 -0.767461
v 1.585904 3.660542 -0.271410
v 1.585904 3.660542 0.271410
v -1.973262 5.161216 0.273182
v -1.973262 5.161216 -0.273182
v -1.254275 6.610631 0.272293
v -1.254275 6.610631 -0.272293
v 1.271748 6.610631 0.271404
v 1.271748 6.610631 -0.271404
v -0.094630 6.832992 -0.271404
v -0.094630 6.832992 0.271404
v -1.462520 4.129242 -1.509867
v 1.494594 4.154027 -1.509867
v 1.494594 4.154027 1.509867
v -1.462520 4.129242 1.509867
v -0.094021 4.129242 1.759737
v -0.094021 4.129242 -1.759737
v -1.707046 4.129242 -0.273182
v -1.707046 4.129242 0.273182
v -0.130838 0.021127 -1.620037
v -1.706834 0.021127 -1.390004
v -0.130838 0.021127 1.620037
v 1.301474 0.021127 1.499053
v 1.301474 0.021127 -1.499053
v -1.706834 0.021127 1.390004
v -0.042670 0.021127 -0.234199
v -0.042670 0.021127 0.234199
v -2.012036 0.021127 0.340493
v -2.012036 0.021127 -0.340493
v 1.353740 0.021127 0.884725
v 1.353740 0.021127 -0.884725
v -1.670109 2.575336 1.350041
v -1.670109 2.575337 -1.350041
v 1.390520 2.987772 -1.350041
v 1.390520 2.987772 1.350041
v -0.085924 2.987772 1.573461
v -0.085924 2.987772 -1.573461
v 1.596470 2.987772 0.585665
v 1.596470 2.987772 -0.585665
v -1.975310 2.575337 -0.263761
v -1.975310 2.575336 0.263761
v -2.422704 0.744962 0.395537
v -2.422704 0.744962 -0.395537
v -2.759769 0.150432 0.340493
v -2.759769 0.150432 -0.340493
v -2.519662 0.955599 0.395537
v -2.519662 0.955600 -0.395536
v -3.146466 0.683212 0.340493
v -3.146466 0.683212 -0.340492
v -2.959162 1.116997 0.000000
v -3.126820 0.969800 -0.204070
v -3.126820 0.969800 0.204071
v -2.751153 1.133052 -0.237060
v -2.751152 1.133052 0.237060
v 2.484209 4.943015 0.000000
v 2.588870 5.363662 0.000000
v 2.558635 5.363662 0.423470
v 2.558635 5.363662 -0.423470
v 2.576042 5.039211 0.000000
v 1.990161 5.429646 -0.600370
v 2.521569 5.366124 -0.511421
v 2.518671 5.360465 0.514980
v 1.990367 5.429376 0.600421
v 2.390586 4.443942 -0.487848
v 1.898519 4.377884 -0.650988
v 1.897578 4.376708 0.650694
v 2.390192 4.441843 0.489900
v -1.403753 3.883343 -1.753091
v -1.647361 5.081555 -2.052184
v -0.181430 5.081555 2.391803
v -1.647361 5.081555 2.052184
v -1.403753 3.883343 1.753091
v -0.239891 6.764456 1.743273
v -1.194145 6.764456 1.495741
v -1.194145 6.764456 -1.495741
v -0.181430 5.081555 -2.391803
v -0.239891 6.764456 -1.743273
v -0.151473 3.883343 2.043212
v -0.151473 3.883343 -2.043212
v -1.194145 6.764456 0.316157
v -0.152030 7.022637 0.315124
v -0.152030 7.022637 -0.315124
v -1.194145 6.764456 -0.316157
v 2.327475 0.417787 -0.767461
v 1.966004 0.417787 -1.621377
v 2.308609 0.021127 -0.767461
v 1.966004 0.417787 1.621377
v 1.733937 0.021127 -1.652439
v 2.119499 0.021127 -1.652439
v 2.186593 0.417787 0.767461
v 1.640831 0.021127 -0.767461
v 2.186593 0.417787 -0.767461
v 1.640831 0.021127 0.767461
v 1.733937 0.021127 1.652439
v 2.106886 0.417787 -1.621377
v 2.308609 0.021127 0.767461
v 2.327475 0.417787 0.767461
v 2.106886 0.417787 1.621377
v 2.119499 0.021127 1.652439
v -2.074176 0.546396 1.008457
v -1.346363 3.660542 0.797318
v -1.880134 5.161216 1.020324
v -1.233459 6.610631 0.780258
v -0.142637 6.721812 0.886408
v -1.541081 4.129242 0.891525
v -1.859435 0.021127 0.865248
v -0.086754 0.021127 0.927118
v 1.259185 0.021127 1.209950
v -1.822709 2.575336 0.806901
v 1.557012 2.987772 0.845185
v -1.194145 6.764456 0.905949
v -0.195960 6.893547 1.029199
v 2.076298 0.417787 1.194419
v 1.828492 0.021127 1.209950
v 2.370421 0.417787 1.194419
v 2.367295 0.021127 1.209950
v -2.074176 0.546396 -1.008457
v -1.346363 3.660542 -0.797318
v -1.880134 5.161216 -1.020324
v -1.233459 6.610631 -0.780258
v -0.142637 6.721812 -0.886408
v -1.541081 4.129242 -0.891525
v -1.859435 0.021127 -0.865248
v -0.086754 0.021127 -0.927118
v 1.259185 0.021127 -1.209950
v -1.822709 2.575337 -0.806901
v 1.557012 2.987772 -0.845185
v -1.194145 6.764456 -0.905949
v -0.195960 6.893547 -1.029199
v 2.076298 0.417787 -1.194419
v 1.828492 0.021127 -1.209950
v 2.370421 0.417787 -1.194419
v 2.367295 0.021127 -1.209950
vn -0.9391 -0.3050 0.1582
vn 0.1495 0.0454 -0.9877
vn -0.1673 0.0744 0.9831
vn -0.8990 0.4303 -0.0816
vn 0.8543 0.5197 -0.0000
vn 0.1157 -0.4487 -0.8862
vn -0.9154 -0.3534 0.1928
vn 0.9891 -0.1396 0.0470
vn -0.9411 -0.2871 -0.1786
vn 0.2133 -0.1810 0.9601
vn 0.2223 0.3655 0.9039
vn 0.1605 0.9861 -0.0430
vn 0.1605 0.9861 0.0430
vn -0.8958 0.4444 0.0000
vn 0.2133 -0.1810 -0.9601
vn -0.9076 0.3709 -0.1966
vn 0.1495 0.0454 0.9877
vn -0.1673 0.0744 -0.9831
vn 0.1157 -0.4487 0.8862
vn -0.9924 0.1230 0.0000
vn 0.8028 0.4773 -0.3574
vn -0.8568 -0.5157 0.0000
vn -0.8990 0.4303 0.0816
vn 0.1606 0.9870 0.0000
vn -0.8871 0.4197 0.1921
vn -0.1883 0.9821 0.0000
vn -0.9683 -0.2498 0.0000
vn 0.1432 -0.3984 -0.9060
vn -0.1626 -0.4254 0.8903
vn 0.1432 -0.3984 0.9060
vn -0.8681 -0.4603 -0.1858
vn -0.1626 -0.4254 -0.8903
vn -0.9025 -0.4124 0.1241
vn 0.0463 0.9824 -0.1812
vn 0.0463 0.9824 0.1812
vn 0.2223 0.3655 -0.9039
vn -0.8604 -0.4824 -0.1642
vn -0.1218 -0.5573 0.8213
vn -0.1218 -0.5573 -0.8213
vn -0.9567 0.1402 0.2550
vn 0.3135 0.9496 0.0000
vn -0.8919 0.4523 0.0000
vn -0.1590 0.1328 -0.9783
vn 0.1595 0.1103 0.9810
vn -0.9555 0.1473 -0.2555
vn 0.0000 0.1050 0.9945
vn -0.1590 0.1328 0.9783
vn 0.1595 0.1103 -0.9810
vn -0.0718 -0.0467 -0.9963
vn -0.0178 -0.0859 -0.9961
vn -0.0178 -0.0859 0.9961
vn -0.0718 -0.0467 0.9963
vn 0.9084 0.4181 -0.0000
vn -0.4025 0.8667 -0.2945
vn -0.0770 0.9970 0.0000
vn -0.4025 0.8667 0.2945
vn 0.6084 0.7936 -0.0000
vn -0.2625 0.4294 -0.8642
vn 0.8028 0.4773 0.3574
vn 0.9889 -0.1416 -0.0449
vn -0.2625 0.4294 0.8642
vn 0.8980 -0.0363 0.4385
vn 0.2392 -0.0137 -0.9709
vn 0.2344 -0.0139 0.9720
vn 0.1240 0.9923 0.0028
vn 0.8978 -0.0358 -0.4389
vn -0.1512 -0.0512 -0.9872
vn -0.1512 -0.0512 0.9872
vn 0.0000 0.1050 -0.9945
vn 0.0000 0.0781 0.9969
vn 0.0000 0.0781 -0.9969
vn -0.9555 0.1473 0.2555
vn -0.8681 -0.4603 0.1858
vn -0.9076 0.3709 0.1966
vn -0.9151 0.3879 0.1104
vn -0.8604 -0.4824 0.1642
vn -0.9411 -0.2871 0.1786
vn -0.9567 0.1402 -0.2550
vn -0.9154 -0.3534 -0.1928
vn -0.9025 -0.4124 -0.1241
vn -0.8871 0.4197 -0.1921
vn -0.9391 -0.3050 -0.1582
vn -0.9151 0.3879 -0.1104
vn 0.0000 -1.0000 -0.0000
vn 0.9627 0.0767 0.2594
vn 0.9627 0.0767 -0.2594
vn 0.8329 -0.5534 0.0000
vn 1.0000 0.0081 -0.0000
vn 0.8765 -0.4216 0.2326
vn 0.9168 -0.3993 0.0002
vn 0.9829 -0.1844 0.0000
vn 0.8613 0.0400 0.5065
vn 0.9999 0.0157 0.0000
vn -0.1704 -0.9854 0.0000
vn -0.8093 -0.5874 0.0000
vn -0.9977 0.0684 0.0000
vn -0.6598 0.7515 0.0000
vn 0.8763 -0.4219 -0.2327
vn 0.1321 -0.9912 -0.0013
vn 0.0000 1.0000 -0.0000
vn 0.9324 0.2320 0.2770
vn 0.9928 -0.0298 0.1161
vn 0.0000 0.0000 1.0000
vn -0.3780 -0.0224 -0.9255
vn 0.0000 -0.0706 -0.9975
vn 0.0000 -0.0706 0.9975
vn 0.0000 0.0000 -1.0000
vn 0.9516 0.2268 -0.2076
vn 0.9748 0.1067 -0.1957
vn 0.9748 0.1067 0.1957
vn 0.9516 0.2268 0.2076
vn 0.9928 -0.0298 -0.1161
vn 0.9324 0.2320 -0.2770
vn 0.8613 0.0400 -0.5065
vn -0.3780 -0.0224 0.9255
vn 0.8415 0.4794 -0.2492
vn 0.3578 -0.8400 -0.4079
vn 0.4049 -0.2541 0.8784
vn -0.3578 0.8400 0.4079
vn -0.4049 0.2541 -0.8784
vn -0.0333 -0.4143 -0.9095
vn 0.5393 -0.7737 0.3326
vn 0.0333 0.4143 0.9095
vn -0.5393 0.7736 -0.3326
vn 0.8611 0.4794 0.1694
vn 0.8611 0.4794 0.1695
vn 0.3943 -0.8400 0.3727
vn 0.3210 -0.2541 -0.9123
vn -0.3943 0.8400 -0.3727
vn -0.3210 0.2541 0.9123
vn 0.0518 -0.4143 0.9087
vn 0.5058 -0.7737 -0.3816
vn -0.0518 0.4143 -0.9087
vn -0.5058 0.7736 0.3816
vn 0.7045 -0.5616 -0.4340
vn -0.0052 1.0000 0.0055
vn 0.9967 -0.0394 0.0712
vn 0.9967 -0.0394 -0.0712
vn -0.0952 0.9954 -0.0068
vn 0.7144 -0.5552 0.4259
vn 0.0797 0.9968 -0.0057
vn -0.9246 0.3381 0.1758
vn 0.1393 -0.7236 -0.6760
vn -0.9689 0.2476 0.0000
vn 0.9855 -0.0213 -0.1683
vn -0.9246 0.3381 -0.1758
vn -0.9636 -0.2462 -0.1040
vn -0.2168 -0.2777 -0.9359
vn -0.2207 0.3516 -0.9098
vn -0.2207 0.3516 0.9098
vn -0.2168 -0.2777 0.9359
vn -0.1909 0.9774 -0.0903
vn -0.1909 0.9774 0.0903
vn -0.0548 0.2471 -0.9674
vn -0.9542 0.2985 -0.0181
vn -0.9636 -0.2462 0.1040
vn -0.0548 0.2471 0.9674
vn 0.9811 0.1017 -0.1646
vn 0.9648 0.2389 0.1099
vn 0.9769 0.1878 -0.1015
vn 0.9811 0.1017 0.1646
vn 0.1393 -0.7236 0.6760
vn 0.9855 -0.0213 0.1683
vn 0.9769 0.1878 0.1015
vn -0.0837 0.9919 0.0954
vn -0.9542 0.2985 0.0181
vn 0.9648 0.2389 -0.1099
vn -0.0837 0.9919 -0.0954
usemtl DD9944
s off
f 168//1 78//1 46//1 165//1
f 100//2 52//2 42//2 97//2
f 99//3 54//3 36//3 95//3
f 182//4 68//4 70//4 183//4
f 71//5 126//5 123//5 72//5
f 51//6 41//6 87//6 83//6
f 163//7 59//7 91//7 169//7
f 130//8 118//8 125//8
f 185//9 81//9 68//9 182//9
f 79//10 77//10 45//10 56//10
f 56//11 45//11 49//11 58//11
f 48//12 73//12 72//12
f 71//13 74//13 49//13
f 67//14 69//14 70//14 68//14
f 76//15 80//15 55//15 44//15
f 189//16 181//16 38//16 96//16
f 98//17 40//17 54//17 99//17
f 96//18 38//18 52//18 100//18
f 39//19 53//19 85//19 86//19
f 103//20 60//20 59//20 104//20
f 123//21 44//21 48//21 72//21
f 81//22 62//22 61//22 82//22
f 165//23 166//23 69//23 67//23
f 74//24 71//24 72//24 73//24
f 172//25 164//25 61//25 104//25
f 69//26 74//26 73//26 70//26
f 68//27 81//27 82//27 67//27
f 42//28 52//28 80//28 76//28
f 36//29 54//29 79//29 78//29
f 54//30 40//30 77//30 79//30
f 181//31 62//31 81//31 185//31
f 52//32 38//32 75//32 80//32
f 164//33 36//33 78//33 168//33
f 73//34 48//34 57//34 184//34
f 49//35 74//35 167//35 58//35
f 55//36 57//36 48//36 44//36
f 180//37 37//37 84//37 186//37
f 53//38 35//38 88//38 85//38
f 37//39 51//39 83//39 84//39
f 163//40 172//40 104//40 59//40
f 59//41 60//41 106//41 105//41
f 62//42 103//42 104//42 61//42
f 37//43 96//43 100//43 51//43
f 39//44 98//44 99//44 53//44
f 180//45 189//45 96//45 37//45
f 98//46 39//46 150//46
f 53//47 99//47 95//47 35//47
f 51//48 100//48 97//48 41//48
f 106//49 108//49 112//49 110//49
f 60//50 92//50 108//50 106//50
f 91//51 59//51 105//51 107//51
f 107//52 105//52 109//52 111//52
f 105//53 106//53 110//53 109//53
f 116//54 114//54 113//54
f 117//55 116//55 113//55
f 115//56 117//56 113//56
f 109//57 110//57 116//57 117//57
f 110//58 112//58 114//58 116//58
f 126//59 71//59 49//59 45//59
f 118//60 127//60 124//60
f 111//61 109//61 117//61 115//61
f 77//62 129//62 126//62 45//62
f 128//63 123//63 124//63 127//63
f 126//64 129//64 130//64 125//64
f 123//65 126//65 125//65 124//65
f 128//66 76//66 44//66 123//66
f 87//67 41//67 148//67 151//67
f 39//68 86//68 157//68 150//68
f 41//69 97//69 148//69
f 150//70 157//70 162//70 161//70
f 151//71 148//71 158//71 152//71
f 35//72 95//72 172//72 163//72
f 61//73 164//73 168//73 82//73
f 95//74 36//74 164//74 172//74
f 46//75 50//75 166//75 165//75
f 35//76 163//76 169//76 88//76
f 82//77 168//77 165//77 67//77
f 60//78 103//78 189//78 180//78
f 60//79 180//79 186//79 92//79
f 38//80 181//80 185//80 75//80
f 103//81 62//81 181//81 189//81
f 75//82 185//82 182//82 43//82
f 43//83 182//83 183//83 47//83
usemtl FFCC88
f 171//84 93//84 156//84 177//84
f 101//85 40//85 98//85 173//85
f 97//86 42//86 102//86 190//86
f 64//87 63//87 93//87 94//87
f 101//88 63//88 64//88 102//88
f 40//89 66//89 129//89 77//89
f 188//84 87//84 151//84 194//84
f 65//90 128//90 129//90 66//90
f 187//84 188//84 94//84 89//84
f 170//84 171//84 86//84 85//84
f 186//84 187//84 89//84 92//84
f 169//84 170//84 85//84 88//84
f 127//91 118//91 130//91
f 90//84 91//84 92//84 89//84
f 93//84 90//84 89//84 94//84
f 178//92 161//92 162//92 179//92
f 66//93 101//93 102//93 65//93
f 92//94 91//94 107//94 108//94
f 108//95 107//95 111//95 112//95
f 112//96 111//96 115//96 114//96
f 114//97 115//97 113//97
f 65//98 42//98 76//98 128//98
f 127//99 130//99 129//99 128//99
f 193//100 155//100 147//100 195//100
f 194//84 151//84 152//84 196//84
f 173//101 98//101 150//101 176//101
f 195//102 147//102 149//102 196//102
f 64//103 154//103 155//103
f 93//104 63//104 156//104
f 63//105 101//105 153//105
f 102//106 64//106 155//106
f 156//107 153//107 160//107 159//107
f 190//108 102//108 155//108 193//108
f 177//84 156//84 159//84 179//84
f 176//100 150//100 161//100 178//100
f 155//103 154//103 149//103 147//103
f 153//100 176//100 178//100 160//100
f 102//109 42//109 65//109
f 40//110 101//110 66//110
f 157//84 177//84 179//84 162//84
f 101//111 173//111 176//111 153//111
f 160//112 178//112 179//112 159//112
f 91//84 90//84 170//84 169//84
f 90//84 93//84 171//84 170//84
f 86//84 171//84 177//84 157//84
f 97//113 190//113 193//113 148//113
f 158//114 195//114 196//114 152//114
f 154//84 194//84 196//84 149//84
f 148//100 193//100 195//100 158//100
f 84//84 83//84 187//84 186//84
f 83//84 87//84 188//84 187//84
f 94//84 188//84 194//84 154//84
f 156//107 63//107 153//107
f 154//115 64//115 94//115
usemtl 1A1A1A
f 9//116 16//116 17//116
f 11//116 10//116 17//116
f 13//116 12//116 17//116
f 14//116 15//116 17//116
f 16//116 14//116 17//116
f 10//116 9//116 17//116
f 12//116 11//116 17//116
f 15//116 13//116 17//116
f 7//117 8//117 16//117 9//117
f 5//118 6//118 10//118 11//118
f 3//119 4//119 12//119 13//119
f 1//120 2//120 15//120 14//120
f 8//121 1//121 14//121 16//121
f 6//122 7//122 9//122 10//122
f 4//123 5//123 11//123 12//123
f 2//124 3//124 13//124 15//124
f 26//125 34//125 33//125
f 28//126 34//126 27//126
f 30//125 34//125 29//125
f 31//125 34//125 32//125
f 33//125 34//125 31//125
f 27//125 34//125 26//125
f 29//125 34//125 28//125
f 32//126 34//126 30//126
f 24//127 26//127 33//127 25//127
f 22//128 28//128 27//128 23//128
f 20//129 30//129 29//129 21//129
f 18//130 31//130 32//130 19//130
f 25//131 33//131 31//131 18//131
f 23//132 27//132 26//132 24//132
f 21//133 29//133 28//133 22//133
f 19//134 32//134 30//134 20//134
f 118//135 124//135 121//135 122//135
f 119//136 124//136 125//136
f 120//137 122//137 119//137
f 122//138 121//138 119//138
f 119//139 125//139 120//139
f 125//140 118//140 122//140 120//140
f 124//141 119//141 121//141
usemtl 795548
f 50//142 46//142 134//142 137//142
f 78//143 79//143 141//143 135//143
f 166//144 50//144 137//144 174//144
f 55//145 80//145 142//145 139//145
f 43//146 47//146 138//146 132//146
f 75//147 43//147 132//147 131//147
f 142//148 131//148 132//148 139//148
f 139//149 132//149 138//149 140//149
f 133//150 136//150 137//150 134//150
f 135//151 141//151 133//151 134//151
f 191//152 146//152 145//152 192//152
f 175//153 144//153 143//153 174//153
f 74//154 69//154 143//154 144//154
f 183//155 70//155 146//155 191//155
f 46//156 78//156 135//156 134//156
f 70//157 73//157 145//157 146//157
f 57//158 55//158 139//158 140//158
f 167//159 74//159 144//159 175//159
f 184//160 57//160 140//160 192//160
f 56//161 58//161 136//161 133//161
f 80//162 75//162 131//162 142//162
f 79//163 56//163 133//163 141//163
f 58//164 167//164 175//164 136//164
f 136//165 175//165 174//165 137//165
f 69//166 166//166 174//166 143//166
f 73//167 184//167 192//167 145//167
f 47//144 183//144 191//144 138//144
f 138//168 191//168 192//168 140//168
